<?xml version="1.0" encoding="UTF-8"?>
<svg version="1.1" xmlns="http://www.w3.org/2000/svg" width="1600" height="1200">
<path d="M0 0 C528 0 1056 0 1600 0 C1600 396 1600 792 1600 1200 C1072 1200 544 1200 0 1200 C0 804 0 408 0 0 Z " fill="#FEFEFE" transform="translate(0,0)"/>
<path d="M0 0 C0.93441925 -0.00199402 1.8688385 -0.00398804 2.83157349 -0.00604248 C10.66843029 0.06295602 17.91280338 1.12552585 25.48828125 3.21875 C26.4834375 3.48558594 27.47859375 3.75242187 28.50390625 4.02734375 C54.33742839 11.79812247 75.8056927 29.51880866 88.58789062 53.26123047 C96.00782268 68.07597876 99.66503186 83.58134063 99.62109375 100.13671875 C99.62205048 100.95642654 99.6230072 101.77613434 99.62399292 102.62068176 C99.62466862 104.34420855 99.62285724 106.06773797 99.61865234 107.79125977 C99.61333027 110.38238476 99.61860035 112.97333367 99.625 115.56445312 C99.63794651 141.01090408 99.63794651 141.01090408 96.92578125 152.59375 C96.75723633 153.32577637 96.58869141 154.05780273 96.41503906 154.81201172 C92.42359785 171.29973428 86.9490446 187.47830495 78.48828125 202.21875 C78.10945801 202.88310059 77.73063477 203.54745117 77.34033203 204.23193359 C71.63433866 214.09879064 65.07768641 222.73915897 57.48828125 231.21875 C56.40353516 232.48525391 56.40353516 232.48525391 55.296875 233.77734375 C44.23629961 246.612806 30.17738379 256.89717127 15.48828125 265.21875 C14.91335938 265.54584961 14.3384375 265.87294922 13.74609375 266.20996094 C-1.11616548 274.52536253 -17.58173801 279.84455952 -34.13671875 283.65625 C-35.10907471 283.88393066 -35.10907471 283.88393066 -36.10107422 284.11621094 C-50.87576654 287.23173584 -66.46189533 286.37339879 -81.46728516 286.37988281 C-83.97874015 286.3845187 -86.49019445 286.38954438 -89.00164795 286.39492798 C-95.79120173 286.40797777 -102.58074423 286.4145201 -109.3703084 286.41893864 C-113.62160266 286.42171661 -117.87289471 286.42595655 -122.12418747 286.43044281 C-133.93025125 286.44262065 -145.73631327 286.4529242 -157.54238319 286.4563179 C-158.67206435 286.45664725 -158.67206435 286.45664725 -159.82456734 286.45698325 C-160.95669833 286.45731067 -160.95669833 286.45731067 -162.11170065 286.4576447 C-163.64071059 286.45808814 -165.16972053 286.45853471 -166.69873047 286.45898438 C-167.83635354 286.45931652 -167.83635354 286.45931652 -168.9969589 286.45965537 C-181.2754518 286.46360028 -193.55388525 286.48105161 -205.83235522 286.5043439 C-218.48451618 286.5281485 -231.13664742 286.5405238 -243.78883111 286.54168582 C-250.87408154 286.54259726 -257.95925436 286.54821463 -265.04448318 286.56650543 C-271.71440441 286.58366565 -278.38415432 286.58509164 -285.05410004 286.57636642 C-287.48712687 286.57560164 -289.92016192 286.57986399 -292.35316849 286.58982468 C-336.92901575 286.76146137 -379.18370599 274.41635556 -412.18359375 243.39453125 C-413.9974019 241.69941189 -415.81401585 240.12628465 -417.76171875 238.59375 C-429.09571973 228.80529461 -438.18566732 215.15056548 -445.51171875 202.21875 C-445.83881836 201.64382813 -446.16591797 201.06890625 -446.50292969 200.4765625 C-453.273485 188.3754334 -457.56017463 175.46965544 -461.51171875 162.21875 C-461.75470703 161.42210937 -461.99769531 160.62546875 -462.24804688 159.8046875 C-469.22442777 136.23076757 -467.10003624 110.94297542 -455.69921875 89.15625 C-441.90715778 64.54921095 -420.46265093 46.93706261 -393.3417511 38.989151 C-385.70988177 36.85280036 -378.07336313 35.90178896 -370.19921875 35.15625 C-368.65531975 34.99787592 -367.11154019 34.83833392 -365.56787109 34.67773438 C-351.61636613 33.24736834 -337.64329412 31.99359263 -323.6706543 30.78881836 C-312.30241048 29.80007665 -300.95566522 28.64462845 -289.609375 27.43359375 C-265.25342429 24.83634881 -240.87264499 22.49531256 -216.49267578 20.13635254 C-210.43057059 19.54954753 -204.36860577 18.96129666 -198.30664062 18.37304688 C-197.11238653 18.25715902 -195.91813244 18.14127117 -194.68768883 18.02187157 C-192.28156224 17.78838425 -189.87543621 17.55489109 -187.46931076 17.32139206 C-183.88894832 16.97400958 -180.30856556 16.62683706 -176.72817993 16.2796936 C-155.42256993 14.21336226 -134.11908122 12.12562047 -112.81599712 10.03343296 C-106.35367839 9.39898617 -99.8911608 8.76659902 -93.4284668 8.13598633 C-92.62251666 8.05733054 -91.81656652 7.97867476 -90.98619366 7.89763546 C-86.10060697 7.42126054 -81.21470858 6.94817935 -76.32866383 6.47652721 C-68.82564151 5.75202723 -61.32649889 4.99610831 -53.82940674 4.21252441 C-49.29453361 3.73983033 -44.75875918 3.27611682 -40.22290039 2.81298828 C-38.0461891 2.58838799 -35.86989107 2.35973475 -33.6940918 2.12646484 C-22.45265608 0.9225604 -11.31275636 0.02073833 0 0 Z " fill="#000000" transform="translate(983.51171875,596.78125)"/>
<path d="M0 0 C1.25490234 -0.00580078 1.25490234 -0.00580078 2.53515625 -0.01171875 C3.34339844 -0.01042969 4.15164063 -0.00914062 4.984375 -0.0078125 C6.07057129 -0.00612061 6.07057129 -0.00612061 7.17871094 -0.00439453 C9.25 0.125 9.25 0.125 11.11303711 0.5949707 C13.96787192 1.30305323 16.77555444 1.49724553 19.70703125 1.73828125 C21.03711465 1.85052347 22.3671925 1.96283145 23.69726562 2.07519531 C24.40407471 2.13372681 25.11088379 2.1922583 25.83911133 2.25256348 C38.65840536 3.31884384 51.45748665 4.52736129 64.25 5.875 C77.68766602 7.28837462 91.13382283 8.59994754 104.5859375 9.8671875 C105.40183601 9.9440831 106.21773453 10.0209787 107.05835724 10.10020447 C115.37394834 10.88352637 123.68985974 11.66335566 132.00627708 12.43785667 C135.17473678 12.73328243 138.34304974 13.0302629 141.51134109 13.32748795 C142.98597787 13.46541117 144.46068353 13.60260053 145.93546677 13.73894882 C154.43625367 14.52492666 162.91837844 15.40143137 171.39297295 16.43515205 C178.35197601 17.28015612 185.32728468 17.85941621 192.3125 18.4375 C206.08048018 19.60790902 219.82168741 20.98477419 233.5625 22.4375 C273.14834603 26.61532793 312.76246323 30.5291371 352.41226196 34.05096436 C355.55130762 34.33124269 358.68981077 34.61725812 361.82818604 34.90493774 C363.51476382 35.05819151 365.20159439 35.20867806 366.88861084 35.35702515 C369.57099384 35.59395116 372.25229313 35.84099871 374.93359375 36.08984375 C375.74147842 36.15911072 376.5493631 36.22837769 377.38172913 36.29974365 C385.42239219 37.06541652 392.71097091 39.31314591 400.25 42.125 C401.32894531 42.51816406 402.40789062 42.91132813 403.51953125 43.31640625 C428.91477546 53.19414565 447.52268546 73.72869998 458.4453125 98.22607422 C464.20379583 111.8151165 465.5672983 126.02292212 465.47705078 140.64794922 C465.47734283 141.91795776 465.47763489 143.18796631 465.47793579 144.49645996 C465.47850211 147.92946471 465.46686688 151.36232543 465.45278788 154.79529715 C465.44015814 158.40137567 465.43910049 162.00745867 465.43673706 165.61355591 C465.43055785 172.42006991 465.41419601 179.22651852 465.39403808 186.03300393 C465.37156729 193.79133376 465.36065774 201.54966696 465.35064721 209.30802131 C465.32982598 225.24705188 465.2947204 241.18601746 465.25 257.125 C464.92 257.125 464.59 257.125 464.25 257.125 C464.17523437 256.32320312 464.10046875 255.52140625 464.0234375 254.6953125 C461.14100787 229.77077392 449.36034339 206.58789136 430.25 190.125 C417.78658851 180.33953773 403.68498071 172.8944683 388.25 169.125 C387.37085938 168.90070313 386.49171875 168.67640625 385.5859375 168.4453125 C369.08751933 164.97446372 351.08411091 167.0061657 334.47528076 168.80337524 C330.17702536 169.26801218 325.87600687 169.70478648 321.57516479 170.14472961 C319.14983699 170.39314563 316.72464912 170.64293101 314.29959106 170.89396667 C303.97740749 171.96005166 293.65009525 172.96750913 283.3203125 173.95703125 C282.07754516 174.07611249 282.07754516 174.07611249 280.8096714 174.19759941 C276.51183978 174.60924898 272.21395216 175.02031085 267.91604614 175.43118286 C258.95531883 176.28818572 249.99517549 177.15125429 241.03515625 178.015625 C240.13283957 178.10266756 239.23052288 178.18971012 238.30086327 178.27939034 C215.69682954 180.46109764 193.09824322 182.69750598 170.49986553 184.93690014 C166.330655 185.35001692 162.16142861 185.76297324 157.9921875 186.17578125 C157.17327341 186.25686693 156.35435932 186.33795261 155.51062965 186.42149544 C136.9052205 188.26303508 118.29657551 190.07094917 99.6875 191.875 C69.71153953 194.77970541 69.71153953 194.77970541 39.74462891 197.77612305 C32.51413288 198.50916577 25.28256886 199.22068813 18.04554749 199.88670349 C14.29097122 200.23242982 10.53696177 200.58413316 6.78292847 200.93569946 C5.00696258 201.10008135 3.23070368 201.26133602 1.45413208 201.41903687 C-29.30155147 204.14954798 -57.40544882 213.85179382 -77.75 238.125 C-92.19256325 256.75601117 -99.42340721 277.66969935 -99.75 301.125 C-100.08 301.125 -100.41 301.125 -100.75 301.125 C-100.79677552 273.8385443 -100.83201604 246.55209463 -100.85362434 219.26560688 C-100.8639253 206.59527049 -100.87796306 193.92495905 -100.90087891 181.25463867 C-100.92084893 170.2077936 -100.93372502 159.1609666 -100.93817699 148.11410397 C-100.94077825 142.26799003 -100.94686773 136.42192779 -100.96146011 130.57583046 C-100.97510111 125.06590265 -100.97920951 119.55604752 -100.97621536 114.04610443 C-100.97676262 112.03102663 -100.98070102 110.01594623 -100.98841095 108.0008831 C-101.09964743 77.41078935 -93.36762332 52.45100502 -72.15234375 29.53125 C-52.63158655 9.97875173 -27.50224551 -0.12952392 0 0 Z " fill="#9B81F6" transform="translate(617.75,430.875)"/>
<path d="M0 0 C2.57233833 -0.00435385 5.14467536 -0.00953923 7.7170105 -0.01548767 C13.94776347 -0.02815956 20.17847319 -0.03003778 26.40923688 -0.02768741 C31.48070755 -0.02589547 36.55216522 -0.02767253 41.62363434 -0.03191185 C42.71140026 -0.03280463 42.71140026 -0.03280463 43.82114126 -0.03371545 C45.29493735 -0.03492736 46.76873345 -0.0361415 48.24252954 -0.03735783 C62.02729464 -0.04820463 75.81203521 -0.04608459 89.59680167 -0.03997298 C102.16690376 -0.0348075 114.73692827 -0.04605466 127.30701503 -0.0650712 C140.25866109 -0.08451258 153.21027056 -0.09269454 166.16193128 -0.08894795 C173.41536086 -0.08704528 180.66872447 -0.08943138 187.92214203 -0.10366249 C194.74802416 -0.11692086 201.57374954 -0.11423134 208.3996315 -0.1012516 C210.89112782 -0.09890128 213.38263524 -0.10156443 215.8741188 -0.10987473 C234.80149048 -0.16840771 252.45365714 1.16859002 270.55175781 7.0246582 C271.65688721 7.37536377 272.7620166 7.72606934 273.90063477 8.08740234 C296.83868288 15.51983315 316.40365797 26.86307557 334.18847656 43.28637695 C335.93427155 44.88172641 337.69713883 46.37401553 339.55175781 47.8371582 C368.54423699 72.96397349 385.1953945 114.76059715 388.36425781 152.2746582 C388.69488362 159.24685564 388.59889522 166.23050562 388.55957031 173.20825195 C388.55583064 175.1822139 388.55298819 177.15617773 388.55099487 179.13014221 C388.54343344 184.27403067 388.52385116 189.41780249 388.50158691 194.56164551 C388.48096523 199.83120141 388.47195859 205.10077653 388.46191406 210.37036133 C388.44059667 220.67184429 388.40655358 230.97324147 388.36425781 241.2746582 C388.03425781 241.2746582 387.70425781 241.2746582 387.36425781 241.2746582 C387.28949219 240.47286133 387.21472656 239.67106445 387.13769531 238.8449707 C384.12225338 212.77026697 371.70608323 190.36176941 351.88769531 173.26293945 C336.75244699 161.33748838 318.17291607 152.96856366 298.89941406 151.38012695 C297.6878212 151.27190613 297.6878212 151.27190613 296.45175171 151.16149902 C294.70039669 151.00546209 292.94879788 150.85214239 291.19699097 150.70126343 C286.33739165 150.28182018 281.47982977 149.83981859 276.62207031 149.3996582 C275.60537766 149.30794846 274.588685 149.21623871 273.54118347 149.12174988 C263.92317702 148.24808512 254.31774396 147.26556996 244.71221924 146.26522827 C228.74389351 144.6024261 212.76974192 143.01336473 196.78613281 141.50512695 C195.97551455 141.42862349 195.16489628 141.35212002 194.32971382 141.27329826 C186.20857717 140.50742093 178.08706413 139.7456408 169.96503925 138.9892416 C166.16440383 138.63507969 162.3638982 138.27954408 158.56347656 137.9230957 C157.82839811 137.85417681 157.09331966 137.78525791 156.33596611 137.71425056 C145.0658631 136.65459435 133.80842566 135.50481737 122.55729675 134.25741577 C115.50022576 133.47908773 108.44173726 132.83591845 101.36425781 132.2746582 C93.30481089 131.63487154 85.27442949 130.85515605 77.23925781 129.9621582 C65.24820376 128.65494878 53.24761887 127.47322578 41.23925781 126.3371582 C40.35556519 126.25348999 39.47187256 126.16982178 38.56140137 126.08361816 C32.16257513 125.47827293 25.76345048 124.87611577 19.36425781 124.2746582 C12.07238804 123.58929827 4.78066352 122.9024393 -2.51074219 122.2121582 C-3.82759506 122.08762268 -3.82759506 122.08762268 -5.17105103 121.96057129 C-17.34995547 120.80655291 -29.51860516 119.5873694 -41.67626953 118.22558594 C-48.05478893 117.51748734 -54.42567785 116.96793518 -60.82983398 116.54492188 C-63.22395097 116.31432173 -65.31916587 115.8724746 -67.63574219 115.2746582 C-85.05493251 114.37066829 -101.62861348 115.97607102 -117.63574219 123.2746582 C-118.65152344 123.7284082 -119.66730469 124.1821582 -120.71386719 124.6496582 C-143.77966157 135.53198171 -161.27642024 154.64690588 -170.63574219 178.2746582 C-173.58991605 186.79151649 -175.67706294 195.31353004 -176.63574219 204.2746582 C-176.96574219 204.2746582 -177.29574219 204.2746582 -177.63574219 204.2746582 C-177.73887175 196.98718652 -177.80791529 189.699909 -177.85546875 182.41186523 C-177.87533467 179.94304374 -177.90243673 177.47426766 -177.9375 175.00561523 C-178.15956673 158.94496534 -177.24508768 143.94573662 -173.63574219 128.2746582 C-173.47537979 127.55871994 -173.3150174 126.84278168 -173.14979553 126.10514832 C-167.21090475 99.76022802 -154.05519778 75.16764301 -135.65527344 55.4465332 C-133.88490081 53.54261215 -132.22188451 51.59574669 -130.57324219 49.5871582 C-108.81442888 24.16245787 -73.09740766 7.84139208 -40.63574219 2.2746582 C-39.69777172 2.10690793 -38.75980125 1.93915766 -37.79340744 1.76632404 C-25.23278321 -0.20514899 -12.68666398 -0.0142439 0 0 Z " fill="#FAE5A2" transform="translate(694.6357421875,316.725341796875)"/>
<path d="M0 0 C4.83858548 2.32968931 7.67031069 5.16141452 10 10 C11.09234591 16.74356402 9.95296401 21.4255527 6 27 C2.72964836 30.69311369 -0.77012184 34.14999573 -4.27636719 37.61694336 C-5.33177579 38.67150472 -6.38652221 39.72672915 -7.44065857 40.78256226 C-10.29109202 43.63385328 -13.15065243 46.4758264 -16.01198864 49.31617045 C-19.00558582 52.29096117 -21.99063913 55.27430057 -24.97662354 58.25672913 C-30.62642097 63.89721775 -36.28381924 69.53001798 -41.94401383 75.16007096 C-48.39006541 81.57254228 -54.82755844 87.99357642 -61.26435995 94.41533077 C-74.50009761 107.61974578 -87.74650216 120.81341248 -101 134 C-104.99678542 132.1507426 -107.76065404 129.52827828 -110.83837891 126.4362793 C-111.41121109 125.86855804 -111.98404327 125.30083679 -112.57423401 124.71591187 C-114.46353947 122.84048987 -116.34533991 120.95774616 -118.2265625 119.07421875 C-119.53862873 117.76603995 -120.85091832 116.45808513 -122.16342163 115.15034485 C-124.91217465 112.40905124 -127.65702249 109.66391677 -130.39941406 106.91625977 C-133.91272226 103.39715554 -137.43726551 99.88954961 -140.96505165 96.38496685 C-143.67774938 93.687006 -146.38348307 90.98214454 -149.0872612 88.27524757 C-150.38387855 86.9791434 -151.68285955 85.68539932 -152.98424149 84.39407921 C-154.80355891 82.58710836 -156.61306464 80.77083894 -158.42041016 78.9519043 C-158.958629 78.42132919 -159.49684784 77.89075409 -160.05137634 77.34410095 C-164.29865739 73.03643983 -166.2604169 69.21941732 -166.5625 63.1875 C-166.49029317 57.82814829 -164.38099801 55.23324282 -160.7265625 51.49609375 C-156.85907791 48.1448571 -152.6623298 48.21809109 -147.70214844 48.32104492 C-143.24664264 49.13816188 -141.71935326 50.45185217 -138.5078125 53.59765625 C-137.7545871 54.32387932 -137.7545871 54.32387932 -136.98614502 55.06477356 C-135.30721924 56.69352429 -133.65337319 58.34533964 -132 60 C-130.77358381 61.20848939 -129.54651406 62.41631583 -128.31884766 63.62353516 C-124.43858801 67.45448657 -120.59291286 71.31914693 -116.75 75.1875 C-115.40778949 76.53474177 -114.06534289 77.88174837 -112.72265625 79.22851562 C-109.47905232 82.482982 -106.23862628 85.74058048 -103 89 C-99.85476782 87.60658252 -97.73700656 85.9814362 -95.31896973 83.54602051 C-94.60404861 82.8309584 -93.8891275 82.1158963 -93.15254211 81.37916565 C-92.37839462 80.59468552 -91.60424713 79.81020538 -90.80664062 79.00195312 C-89.98342819 78.17582016 -89.16021576 77.34968719 -88.3120575 76.4985199 C-86.52504513 74.70389575 -84.74034711 72.90696479 -82.95768738 71.10801697 C-80.13815319 68.26298956 -77.31256783 65.42405783 -74.48498535 62.58703613 C-68.48405462 56.56391771 -62.49160214 50.53239612 -56.5 44.5 C-50.03137757 37.98733578 -43.56133129 31.47612644 -37.08147383 24.97463751 C-33.81871152 21.70031042 -30.56383049 18.41826598 -27.31018066 15.1348877 C-25.60486947 13.42231272 -23.89927757 11.7100172 -22.19335938 9.99804688 C-21.41921188 9.21356674 -20.64506439 8.42908661 -19.84745789 7.62083435 C-18.77507622 6.5482412 -18.77507622 6.5482412 -17.68103027 5.45397949 C-17.06309349 4.83160149 -16.44515671 4.20922348 -15.80849457 3.56798553 C-11.01284396 -0.58989855 -6.11563158 -0.77413058 0 0 Z " fill="#FBFBFB" transform="translate(752,693)"/>
</svg>
